<svg width="97" height="100" viewBox="0 0 97 100" xmlns="http://www.w3.org/2000/svg" xmlns:xlink="http://www.w3.org/1999/xlink" fill="none" overflow="hidden"><path d="M0.960938 8.9906 0.960938 73.3706C0.960938 78.2706 4.93094 82.2406 9.83094 82.2406L67.5809 82.2406C69.4009 82.2406 71.1809 82.8006 72.6709 83.8506L95.3109 99.7206C95.8809 100.121 96.6609 99.7206 96.6609 99.0206L96.6609 8.9906C96.6609 4.0906 92.6909 0.120605 87.7909 0.120605L9.83094 0.120605C4.93094 0.120605 0.960938 4.0906 0.960938 8.9906ZM54.1614 16.4304 54.1614 52.9004 43.4514 52.9004 43.4514 16.4304 54.1614 16.4304ZM54.1614 62.0004C54.1614 64.9607 51.7617 67.3604 48.8014 67.3604 45.8412 67.3604 43.4414 64.9607 43.4414 62.0004 43.4414 59.0402 45.8412 56.6404 48.8014 56.6404 51.7617 56.6404 54.1614 59.0402 54.1614 62.0004Z" fill="#01602A" fill-rule="evenodd" clip-rule="evenodd"/></svg>